<svg xmlns="http://www.w3.org/2000/svg" width="29.092" height="39.86" viewBox="0 0 29.092 39.86">
  <g id="pdf" transform="translate(-49.6)">
    <g id="Group_512" data-name="Group 512" transform="translate(49.6)">
      <g id="Group_511" data-name="Group 511" transform="translate(0)">
        <path id="Path_3193" data-name="Path 3193" d="M73.7,8.25a3.234,3.234,0,0,1-3.213-3.213V0H50.729A1.15,1.15,0,0,0,49.6,1.129v37.6a1.15,1.15,0,0,0,1.129,1.129H77.606a1.112,1.112,0,0,0,1.086-1.129V8.25ZM58.979,20.1a3.091,3.091,0,0,1-2.171.608H55.375v2.214c0,1.3-1.563,1.3-1.563,0V16.934c0-.695.3-.955,1-.955a21.251,21.251,0,0,1,3.387.13C60.108,16.63,60.108,19.192,58.979,20.1Zm8.6,1a2.994,2.994,0,0,1-2.518,2.562l-3,.087c-.825,0-1-.347-1-1.129V16.934c0-.695.3-.955.955-.955a17.731,17.731,0,0,1,3.43.13C67.446,16.63,68.01,19.149,67.576,21.1Zm6.687-4.082a.737.737,0,0,1-.564.174H70.616v2h2.605c.955,0,.955,1.172,0,1.172H70.616v2.562c0,1.129-1,1.129-1.346.738a1.242,1.242,0,0,1-.217-.738V16.934c0-.695.3-.955.955-.955H73.7C74.567,15.979,74.567,16.76,74.263,17.021Z" transform="translate(-49.6)"/>
        <path id="Path_3194" data-name="Path 3194" d="M103.886,158h-1.042v2.388H102.8c1.129,0,2.779.217,2.779-1.216C105.579,158.217,104.928,158,103.886,158Z" transform="translate(-97.025 -140.849)"/>
        <path id="Path_3195" data-name="Path 3195" d="M170.642,159.2H169.6v5.254a9.445,9.445,0,0,0,2.258-.13c1.476-.521,1.389-3.387.868-4.255C172.249,159.287,171.554,159.2,170.642,159.2Z" transform="translate(-156.574 -141.919)"/>
        <path id="Path_3196" data-name="Path 3196" d="M260.546,17.393h3.647L259.2,12.4v3.647A1.325,1.325,0,0,0,260.546,17.393Z" transform="translate(-236.448 -11.054)"/>
      </g>
    </g>
  </g>
</svg>
