<svg xmlns="http://www.w3.org/2000/svg" width="24.441" height="24.995" viewBox="0 0 24.441 24.995">
  <g id="calendar_2_" data-name="calendar (2)" transform="translate(-5.411)">
    <g id="Group_488" data-name="Group 488" transform="translate(5.411)">
      <path id="Path_3179" data-name="Path 3179" d="M120.149,258.809a.567.567,0,0,0-.567-.567H117.6a.567.567,0,0,0-.567.567v1.98a.567.567,0,0,0,.567.567h1.98a.567.567,0,0,0,.567-.567v-1.98Z" transform="translate(-111.319 -245.019)"/>
      <path id="Path_3180" data-name="Path 3180" d="M216.784,258.809a.567.567,0,0,0-.567-.567h-1.98a.567.567,0,0,0-.567.567v1.98a.567.567,0,0,0,.567.567h1.98a.567.567,0,0,0,.567-.567Z" transform="translate(-203.006 -245.019)"/>
      <path id="Path_3181" data-name="Path 3181" d="M313.412,258.809a.567.567,0,0,0-.567-.567h-1.98a.567.567,0,0,0-.567.567v1.98a.567.567,0,0,0,.567.567h1.98a.567.567,0,0,0,.567-.567Z" transform="translate(-294.687 -245.019)"/>
      <path id="Path_3182" data-name="Path 3182" d="M120.149,355.442a.567.567,0,0,0-.567-.567H117.6a.567.567,0,0,0-.567.567v1.979a.567.567,0,0,0,.567.567h1.98a.567.567,0,0,0,.567-.567v-1.979Z" transform="translate(-111.319 -336.704)"/>
      <path id="Path_3183" data-name="Path 3183" d="M216.784,355.442a.567.567,0,0,0-.567-.567h-1.98a.567.567,0,0,0-.567.567v1.979a.567.567,0,0,0,.567.567h1.98a.567.567,0,0,0,.567-.567Z" transform="translate(-203.006 -336.704)"/>
      <path id="Path_3184" data-name="Path 3184" d="M313.412,355.442a.567.567,0,0,0-.567-.567h-1.98a.567.567,0,0,0-.567.567v1.979a.567.567,0,0,0,.567.567h1.98a.567.567,0,0,0,.567-.567v-1.979Z" transform="translate(-294.687 -336.704)"/>
      <path id="Path_3185" data-name="Path 3185" d="M27.676,54.153v3.024A2.47,2.47,0,0,1,25.2,59.644H23.64a2.482,2.482,0,0,1-2.49-2.468V54.142H14.113v3.034a2.482,2.482,0,0,1-2.49,2.468H10.062a2.469,2.469,0,0,1-2.475-2.468V54.153a2.251,2.251,0,0,0-2.176,2.239v17.72a2.252,2.252,0,0,0,2.24,2.254h19.96a2.254,2.254,0,0,0,2.24-2.254V56.392A2.251,2.251,0,0,0,27.676,54.153Zm-.725,18.855a.969.969,0,0,1-.969.969H9.238a.969.969,0,0,1-.969-.969V63.855a.969.969,0,0,1,.969-.969H25.983a.969.969,0,0,1,.969.969v9.153Z" transform="translate(-5.411 -51.37)"/>
      <path id="Path_3186" data-name="Path 3186" d="M80.4,6.654h1.544a.848.848,0,0,0,.849-.848V.849A.849.849,0,0,0,81.943,0H80.4a.849.849,0,0,0-.849.849V5.805A.848.848,0,0,0,80.4,6.654Z" transform="translate(-75.754)"/>
      <path id="Path_3187" data-name="Path 3187" d="M345.307,6.654h1.544a.848.848,0,0,0,.849-.848V.849A.849.849,0,0,0,346.851,0h-1.544a.849.849,0,0,0-.849.849V5.805A.848.848,0,0,0,345.307,6.654Z" transform="translate(-327.098)"/>
    </g>
  </g>
</svg>
