<svg xmlns="http://www.w3.org/2000/svg" width="44.201" height="51.815" viewBox="0 0 44.201 51.815">
  <g id="Group_532" data-name="Group 532" transform="translate(-8.199 -30.185)">
    <g id="Group_528" data-name="Group 528">
      <path id="Path_3230" data-name="Path 3230" d="M20.2,30.9a.713.713,0,0,1-.8.7.773.773,0,0,1-.8-.7.713.713,0,0,1,.8-.7.666.666,0,0,1,.8.7" fill="#ec1c24" fill-rule="evenodd"/>
      <path id="Path_3231" data-name="Path 3231" d="M16.4,57.9a1.309,1.309,0,0,0,1.3-1.2,1.24,1.24,0,0,0-1.3-1.2,1.2,1.2,0,1,0,0,2.4Zm0-2.6a1.2,1.2,0,1,0-1.2-1.2A1.216,1.216,0,0,0,16.4,55.3Zm0-2.7a1.2,1.2,0,0,0,1.2-1.1,1.135,1.135,0,0,0-1.2-1.1,1.2,1.2,0,0,0-1.2,1.1A1.135,1.135,0,0,0,16.4,52.6Zm0-2.6a1.1,1.1,0,1,0-1.1-1.1A1.11,1.11,0,0,0,16.4,50Zm0-2.6a1,1,0,1,0-1-1A.942.942,0,0,0,16.4,47.4Zm0-2.7a.945.945,0,0,0,1-1,1,1,0,0,0-2,0A.945.945,0,0,0,16.4,44.7Zm0-2.6a.9.9,0,1,0-.9-.9C15.4,41.7,15.9,42.1,16.4,42.1Zm0-2.6a.9.9,0,1,0-.9-.9A.9.9,0,0,0,16.4,39.5Zm3.7,28.7a1.34,1.34,0,0,0,.8-1.3,1.424,1.424,0,0,0-.9-1.3,1.34,1.34,0,0,0,.8-1.3,1.381,1.381,0,0,0-1-1.3,1.424,1.424,0,0,0,.9-1.3,1.3,1.3,0,0,0-1.1-1.3,1.3,1.3,0,0,0,1.1-1.3,1.3,1.3,0,1,0-2.6,0,1.384,1.384,0,0,0,1.1,1.3,1.384,1.384,0,0,0-1.1,1.3A1.424,1.424,0,0,0,19,63a1.381,1.381,0,0,0-1,1.3,1.441,1.441,0,0,0,.8,1.3,1.424,1.424,0,0,0-.9,1.3,1.561,1.561,0,0,0,.8,1.3,1.441,1.441,0,0,0-.8,1.3,1.5,1.5,0,0,0,3,0A1.561,1.561,0,0,0,20.1,68.2Zm-.7-10.3a1.309,1.309,0,0,0,1.3-1.2,1.24,1.24,0,0,0-1.3-1.2,1.309,1.309,0,0,0-1.3,1.2A1.389,1.389,0,0,0,19.4,57.9Zm0-2.6a1.2,1.2,0,1,0-1.2-1.2A1.29,1.29,0,0,0,19.4,55.3Zm0-2.7a1.2,1.2,0,0,0,1.2-1.1,1.135,1.135,0,0,0-1.2-1.1,1.2,1.2,0,0,0-1.2,1.1A1.278,1.278,0,0,0,19.4,52.6Zm0-2.6a1.1,1.1,0,1,0-1.1-1.1A1.11,1.11,0,0,0,19.4,50Zm0-2.6a1,1,0,1,0-1-1A1,1,0,0,0,19.4,47.4Zm0-2.7a1,1,0,1,0-1-1A1,1,0,0,0,19.4,44.7Zm0-2.6a.9.9,0,1,0-.9-.9A.9.9,0,0,0,19.4,42.1Zm0-2.6a.9.9,0,1,0-.9-.9A.9.9,0,0,0,19.4,39.5Zm0-2.6a.789.789,0,0,0,.8-.8.86.86,0,0,0-.8-.8.789.789,0,0,0-.8.8A.86.86,0,0,0,19.4,36.9Zm0-2.7a.8.8,0,1,0-.8-.8A.789.789,0,0,0,19.4,34.2Zm3.8,34a1.34,1.34,0,0,0,.8-1.3,1.424,1.424,0,0,0-.9-1.3,1.34,1.34,0,0,0,.8-1.3,1.381,1.381,0,0,0-1-1.3,1.424,1.424,0,0,0,.9-1.3,1.3,1.3,0,0,0-1.1-1.3,1.3,1.3,0,0,0,1.1-1.3,1.3,1.3,0,1,0-2.6,0,1.384,1.384,0,0,0,1.1,1.3,1.384,1.384,0,0,0-1.1,1.3,1.424,1.424,0,0,0,.9,1.3,1.381,1.381,0,0,0-1,1.3,1.441,1.441,0,0,0,.8,1.3A1.693,1.693,0,0,0,21,67a1.561,1.561,0,0,0,.8,1.3,1.441,1.441,0,0,0-.8,1.3,1.5,1.5,0,0,0,3,0A1.6,1.6,0,0,0,23.2,68.2Zm-.7-10.3a1.309,1.309,0,0,0,1.3-1.2,1.24,1.24,0,0,0-1.3-1.2,1.2,1.2,0,1,0,0,2.4Zm0-2.6a1.2,1.2,0,1,0-1.2-1.2A1.216,1.216,0,0,0,22.5,55.3Zm0-2.7a1.2,1.2,0,0,0,1.2-1.1,1.135,1.135,0,0,0-1.2-1.1,1.11,1.11,0,0,0-1.1,1.1A1,1,0,0,0,22.5,52.6Zm0-2.6a1.1,1.1,0,1,0-1.1-1.1A1.11,1.11,0,0,0,22.5,50Zm0-2.6a1,1,0,1,0-1-1A.942.942,0,0,0,22.5,47.4Zm0-2.7a1,1,0,1,0-1-1A.945.945,0,0,0,22.5,44.7Zm3.7,23.5A1.3,1.3,0,0,0,27,67a1.424,1.424,0,0,0-.9-1.3,1.34,1.34,0,0,0,.8-1.3,1.381,1.381,0,0,0-1-1.3,1.424,1.424,0,0,0,.9-1.3,1.3,1.3,0,0,0-1.1-1.3,1.3,1.3,0,0,0,1.1-1.3,1.3,1.3,0,0,0-2.6,0,1.384,1.384,0,0,0,1.1,1.3,1.384,1.384,0,0,0-1.1,1.3,1.424,1.424,0,0,0,.9,1.3,1.381,1.381,0,0,0-1,1.3,1.441,1.441,0,0,0,.8,1.3A1.424,1.424,0,0,0,24,67a1.561,1.561,0,0,0,.8,1.3,1.3,1.3,0,0,0-.8,1.2,1.5,1.5,0,0,0,3,0A1.371,1.371,0,0,0,26.2,68.2Zm-.7-10.3a1.309,1.309,0,0,0,1.3-1.2,1.24,1.24,0,0,0-1.3-1.2,1.309,1.309,0,0,0-1.3,1.2A1.389,1.389,0,0,0,25.5,57.9Zm0-2.6a1.2,1.2,0,1,0-1.2-1.2A1.29,1.29,0,0,0,25.5,55.3Zm0-2.7a1.2,1.2,0,0,0,1.2-1.1,1.135,1.135,0,0,0-1.2-1.1,1.2,1.2,0,0,0-1.2,1.1A1.278,1.278,0,0,0,25.5,52.6Zm0-2.6a1.1,1.1,0,1,0-1.1-1.1A1.11,1.11,0,0,0,25.5,50Zm0-2.6a1,1,0,1,0-1-1A1,1,0,0,0,25.5,47.4Zm0-2.7a1,1,0,1,0-1-1A1,1,0,0,0,25.5,44.7Zm0-2.6a.9.9,0,1,0-.9-.9A.9.9,0,0,0,25.5,42.1Zm0-2.6a.9.9,0,1,0-.9-.9A.9.9,0,0,0,25.5,39.5Zm0-2.6a.789.789,0,0,0,.8-.8.86.86,0,0,0-.8-.8.789.789,0,0,0-.8.8A.86.86,0,0,0,25.5,36.9Zm3.8,31.3a1.509,1.509,0,0,0,.8-1.3,1.424,1.424,0,0,0-.9-1.3,1.34,1.34,0,0,0,.8-1.3A1.381,1.381,0,0,0,29,63a1.424,1.424,0,0,0,.9-1.3,1.3,1.3,0,0,0-1.1-1.3,1.3,1.3,0,0,0,1.1-1.3,1.3,1.3,0,1,0-2.6,0,1.384,1.384,0,0,0,1.1,1.3,1.384,1.384,0,0,0-1.1,1.3,1.424,1.424,0,0,0,.9,1.3,1.381,1.381,0,0,0-1,1.3,1.441,1.441,0,0,0,.8,1.3,1.424,1.424,0,0,0-.9,1.3,1.561,1.561,0,0,0,.8,1.3,1.441,1.441,0,0,0-.8,1.3,1.5,1.5,0,0,0,3,0A1.561,1.561,0,0,0,29.3,68.2Zm-.7-10.3a1.309,1.309,0,0,0,1.3-1.2,1.24,1.24,0,0,0-1.3-1.2,1.2,1.2,0,1,0,0,2.4Zm0-2.6a1.2,1.2,0,1,0-1.2-1.2A1.216,1.216,0,0,0,28.6,55.3Zm0-2.7a1.2,1.2,0,0,0,1.2-1.1,1.135,1.135,0,0,0-1.2-1.1,1.2,1.2,0,0,0-1.2,1.1A1.135,1.135,0,0,0,28.6,52.6Zm0-2.6a1.1,1.1,0,1,0-1.1-1.1A1.11,1.11,0,0,0,28.6,50Zm0-2.6a1,1,0,1,0-1-1A.942.942,0,0,0,28.6,47.4Zm0-2.7a1,1,0,1,0-1-1A.945.945,0,0,0,28.6,44.7Zm0-2.6a.9.9,0,1,0-.9-.9C27.6,41.7,28.1,42.1,28.6,42.1Zm0-2.6a.9.9,0,1,0-.9-.9A.9.9,0,0,0,28.6,39.5Zm0-2.6a.789.789,0,0,0,.8-.8.86.86,0,0,0-.8-.8.789.789,0,0,0-.8.8C27.7,36.5,28.1,36.9,28.6,36.9Zm3.8,31.3a1.34,1.34,0,0,0,.8-1.3,1.424,1.424,0,0,0-.9-1.3,1.34,1.34,0,0,0,.8-1.3,1.381,1.381,0,0,0-1-1.3,1.424,1.424,0,0,0,.9-1.3,1.3,1.3,0,0,0-1.1-1.3A1.3,1.3,0,0,0,33,59.1a1.3,1.3,0,1,0-2.6,0,1.384,1.384,0,0,0,1.1,1.3,1.384,1.384,0,0,0-1.1,1.3,1.424,1.424,0,0,0,.9,1.3,1.381,1.381,0,0,0-1,1.3,1.441,1.441,0,0,0,.8,1.3,1.424,1.424,0,0,0-.9,1.3,1.561,1.561,0,0,0,.8,1.3,1.441,1.441,0,0,0-.8,1.3,1.5,1.5,0,0,0,3,0A1.826,1.826,0,0,0,32.4,68.2Zm-.8-10.3a1.309,1.309,0,0,0,1.3-1.2,1.24,1.24,0,0,0-1.3-1.2,1.309,1.309,0,0,0-1.3,1.2A1.389,1.389,0,0,0,31.6,57.9Zm0-2.6a1.2,1.2,0,1,0-1.2-1.2A1.29,1.29,0,0,0,31.6,55.3Zm0-2.7a1.2,1.2,0,0,0,1.2-1.1,1.135,1.135,0,0,0-1.2-1.1,1.1,1.1,0,1,0,0,2.2Zm3.1,5.3A1.309,1.309,0,0,0,36,56.7a1.24,1.24,0,0,0-1.3-1.2,1.2,1.2,0,1,0,0,2.4Zm0-2.6a1.2,1.2,0,1,0-1.2-1.2A1.216,1.216,0,0,0,34.7,55.3Zm0-2.7a1.2,1.2,0,0,0,1.2-1.1,1.135,1.135,0,0,0-1.2-1.1,1.1,1.1,0,1,0,0,2.2Zm0-2.6a1.1,1.1,0,1,0-1.1-1.1A1.11,1.11,0,0,0,34.7,50Zm3,7.9A1.309,1.309,0,0,0,39,56.7a1.24,1.24,0,0,0-1.3-1.2,1.309,1.309,0,0,0-1.3,1.2A1.389,1.389,0,0,0,37.7,57.9Zm0-2.6a1.2,1.2,0,1,0-1.2-1.2A1.29,1.29,0,0,0,37.7,55.3Zm0-2.7a1.2,1.2,0,0,0,1.2-1.1,1.2,1.2,0,0,0-2.4,0A1.278,1.278,0,0,0,37.7,52.6Zm0-2.6a1.1,1.1,0,1,0-1.1-1.1A1.11,1.11,0,0,0,37.7,50Zm0-2.6a1,1,0,1,0-1-1A1.075,1.075,0,0,0,37.7,47.4Zm0-2.7a1,1,0,1,0-1-1A1.071,1.071,0,0,0,37.7,44.7Zm0-2.6a.9.9,0,1,0-.9-.9A.9.9,0,0,0,37.7,42.1Zm3.8,26.1a1.509,1.509,0,0,0,.8-1.3,1.424,1.424,0,0,0-.9-1.3,1.34,1.34,0,0,0,.8-1.3,1.381,1.381,0,0,0-1-1.3,1.424,1.424,0,0,0,.9-1.3A1.3,1.3,0,0,0,41,60.4a1.3,1.3,0,0,0,1.1-1.3,1.3,1.3,0,0,0-2.6,0,1.384,1.384,0,0,0,1.1,1.3,1.384,1.384,0,0,0-1.1,1.3,1.424,1.424,0,0,0,.9,1.3,1.381,1.381,0,0,0-1,1.3,1.441,1.441,0,0,0,.8,1.3,1.424,1.424,0,0,0-.9,1.3,1.561,1.561,0,0,0,.8,1.3,1.441,1.441,0,0,0-.8,1.3,1.34,1.34,0,0,0-.8-1.3,1.509,1.509,0,0,0,.8-1.3,1.424,1.424,0,0,0-.9-1.3,1.34,1.34,0,0,0,.8-1.3,1.381,1.381,0,0,0-1-1.3,1.424,1.424,0,0,0,.9-1.3A1.3,1.3,0,0,0,38,60.4a1.3,1.3,0,0,0,1.1-1.3,1.3,1.3,0,0,0-2.6,0,1.384,1.384,0,0,0,1.1,1.3,1.384,1.384,0,0,0-1.1,1.3,1.424,1.424,0,0,0,.9,1.3,1.381,1.381,0,0,0-1,1.3,1.441,1.441,0,0,0,.8,1.3,1.424,1.424,0,0,0-.9,1.3,1.561,1.561,0,0,0,.8,1.3,1.441,1.441,0,0,0-.8,1.3,1.34,1.34,0,0,0-.8-1.3,1.509,1.509,0,0,0,.8-1.3,1.424,1.424,0,0,0-.9-1.3,1.34,1.34,0,0,0,.8-1.3,1.381,1.381,0,0,0-1-1.3,1.424,1.424,0,0,0,.9-1.3A1.3,1.3,0,0,0,35,60.4a1.3,1.3,0,0,0,1.1-1.3,1.3,1.3,0,0,0-2.6,0,1.384,1.384,0,0,0,1.1,1.3,1.384,1.384,0,0,0-1.1,1.3,1.424,1.424,0,0,0,.9,1.3,1.381,1.381,0,0,0-1,1.3,1.441,1.441,0,0,0,.8,1.3,1.424,1.424,0,0,0-.9,1.3,1.561,1.561,0,0,0,.8,1.3,1.441,1.441,0,0,0-.8,1.3,1.5,1.5,0,0,0,3,0,1.5,1.5,0,0,0,3,0,1.5,1.5,0,0,0,3,0A1.561,1.561,0,0,0,41.5,68.2Zm-.7-10.3a1.309,1.309,0,0,0,1.3-1.2,1.24,1.24,0,0,0-1.3-1.2,1.2,1.2,0,1,0,0,2.4Zm0-2.6a1.2,1.2,0,1,0-1.2-1.2A1.216,1.216,0,0,0,40.8,55.3Zm0-2.7a1.1,1.1,0,1,0,0-2.2,1.1,1.1,0,1,0,0,2.2Zm0-2.6a1.1,1.1,0,1,0-1.1-1.1A1.11,1.11,0,0,0,40.8,50Zm0-2.6a1,1,0,1,0-1-1A.942.942,0,0,0,40.8,47.4Zm0-2.7a1,1,0,1,0-1-1A.945.945,0,0,0,40.8,44.7Zm0-2.6a.9.9,0,1,0-.9-.9A.9.9,0,0,0,40.8,42.1Zm0-2.6a.9.9,0,1,0-.9-.9A.9.9,0,0,0,40.8,39.5Zm0-2.6a.789.789,0,0,0,.8-.8.86.86,0,0,0-.8-.8.8.8,0,0,0,0,1.6Zm0-2.7a.8.8,0,1,0-.8-.8A.789.789,0,0,0,40.8,34.2Zm3.8,34a1.509,1.509,0,0,0,.8-1.3,1.424,1.424,0,0,0-.9-1.3,1.34,1.34,0,0,0,.8-1.3,1.381,1.381,0,0,0-1-1.3,1.424,1.424,0,0,0,.9-1.3,1.3,1.3,0,0,0-1.1-1.3,1.3,1.3,0,0,0,1.1-1.3,1.3,1.3,0,0,0-2.6,0,1.384,1.384,0,0,0,1.1,1.3,1.384,1.384,0,0,0-1.1,1.3,1.424,1.424,0,0,0,.9,1.3,1.381,1.381,0,0,0-1,1.3,1.441,1.441,0,0,0,.8,1.3,1.424,1.424,0,0,0-.9,1.3,1.561,1.561,0,0,0,.8,1.3,1.441,1.441,0,0,0-.8,1.3,1.5,1.5,0,0,0,3,0A1.826,1.826,0,0,0,44.6,68.2Zm-.8-10.3a1.309,1.309,0,0,0,1.3-1.2,1.24,1.24,0,0,0-1.3-1.2,1.309,1.309,0,0,0-1.3,1.2A1.484,1.484,0,0,0,43.8,57.9Zm0-2.6a1.2,1.2,0,1,0-1.2-1.2A1.29,1.29,0,0,0,43.8,55.3Zm0-2.7a1.1,1.1,0,1,0-1.1-1.1A1.11,1.11,0,0,0,43.8,52.6Zm0-2.6a1.1,1.1,0,1,0-1.1-1.1A1.11,1.11,0,0,0,43.8,50Zm0-2.6a1,1,0,1,0-1-1A1.075,1.075,0,0,0,43.8,47.4Zm0-2.7a1,1,0,1,0-1-1A1.071,1.071,0,0,0,43.8,44.7Zm0-2.6a.9.9,0,1,0-.9-.9A.9.9,0,0,0,43.8,42.1Zm0-2.6a.9.9,0,1,0-.9-.9A1.055,1.055,0,0,0,43.8,39.5Zm0-2.6a.789.789,0,0,0,.8-.8.86.86,0,0,0-.8-.8.789.789,0,0,0-.8.8A.86.86,0,0,0,43.8,36.9Zm0-2.7a.8.8,0,1,0-.8-.8C43.1,33.9,43.4,34.2,43.8,34.2Zm-26.7,34a1.509,1.509,0,0,0,.8-1.3,1.424,1.424,0,0,0-.9-1.3,1.34,1.34,0,0,0,.8-1.3,1.381,1.381,0,0,0-1-1.3,1.424,1.424,0,0,0,.9-1.3,1.3,1.3,0,0,0-1.1-1.3,1.3,1.3,0,0,0,1.1-1.3,1.3,1.3,0,0,0-2.6,0,1.384,1.384,0,0,0,1.1,1.3,1.384,1.384,0,0,0-1.1,1.3A1.424,1.424,0,0,0,16,63a1.381,1.381,0,0,0-1,1.3,1.441,1.441,0,0,0,.8,1.3,1.424,1.424,0,0,0-.9,1.3,1.561,1.561,0,0,0,.8,1.3,1.441,1.441,0,0,0-.8,1.3,1.5,1.5,0,1,0,3,0A1.561,1.561,0,0,0,17.1,68.2Z" fill="#fff" fill-rule="evenodd"/>
    </g>
    <g id="Group_530" data-name="Group 530">
      <path id="Path_3232" data-name="Path 3232" d="M12.8,79.1a1.7,1.7,0,0,0-.6-.6,8.809,8.809,0,0,0-1.4-.7A4.683,4.683,0,0,1,9.3,77a.55.55,0,0,1-.3-.5.755.755,0,0,1,.4-.7,1.8,1.8,0,0,1,1.1-.3,2.016,2.016,0,0,1,1.1.3,1.6,1.6,0,0,1,.7.9.1.1,0,0,0,.2,0h0l.1-1.1a1.909,1.909,0,0,0-.8-.3,3.42,3.42,0,0,0-1.1-.1,3.453,3.453,0,0,0-1.8.5,1.525,1.525,0,0,0-.7,1.2,1.445,1.445,0,0,0,.2.7,2.853,2.853,0,0,0,.8.7c.2.1.6.3,1.3.6h0a7.521,7.521,0,0,1,1.4.8.908.908,0,0,1,.3.7,1.421,1.421,0,0,1-.2.6c-.1.2-.3.3-.6.5a2.354,2.354,0,0,1-.8.2,2.106,2.106,0,0,1-1.3-.5,1.691,1.691,0,0,1-.7-1v-.1a.1.1,0,0,0-.2,0l-.1,1.3c0,.1,0,.1.1.2s.2.1.5.2a7.772,7.772,0,0,0,1.6.2,6.053,6.053,0,0,0,1.5-.2,2.178,2.178,0,0,0,.9-.7,1.689,1.689,0,0,0,.3-1A5.133,5.133,0,0,0,12.8,79.1Z" fill="#fff"/>
      <path id="Path_3233" data-name="Path 3233" d="M30,78c.8-.3,1.3-.7,1.3-1.3,0-.8-1.2-1.5-2.6-1.5H27.4a5.722,5.722,0,0,0-1.4.1h-.4c-.1,0-.1,0-.1.1s0,.1.1.1h0l.7.1h0c.2,0,.2.2.2.3h0V81h0a.265.265,0,0,1-.3.3h0l-.6.1h0a.1.1,0,0,0-.1.1c0,.1.1.1.2.1h3.5c1.6,0,2.9-.9,2.9-1.9A2.412,2.412,0,0,0,30,78Zm-1.5-2.5a3.6,3.6,0,0,1,1.1.2,1.067,1.067,0,0,1,.5,1.7s-.4.7-1.8.7a1.7,1.7,0,0,1-.7-.1V75.6A4.127,4.127,0,0,1,28.5,75.5Zm2.1,5.3a2.227,2.227,0,0,1-1.7.6h-.1c-.3,0-1.3-.1-1.3-.7V78.4c.1,0,.6-.1,1-.1a3.984,3.984,0,0,1,1.7.3,1.493,1.493,0,0,1,.6.6A1.248,1.248,0,0,1,30.6,80.8Z" fill="#fff"/>
      <path id="Path_3234" data-name="Path 3234" d="M42.6,81.5h0l-.6-.1h0a.319.319,0,0,1-.3-.3h0V75.9h0a.265.265,0,0,1,.3-.3h0l.6-.1h0a.1.1,0,0,0,.1-.1c0-.1-.1-.1-.2-.1H39.7c-.1,0-.1,0-.2.1,0,.1,0,.1.1.1h0l.6.1h0a.319.319,0,0,1,.3.3h0v2.4H36.2V75.9a.319.319,0,0,1,.3-.3h0l.6-.1h0a.1.1,0,0,0,.1-.1c0-.1-.1-.1-.2-.1H34.2c-.1,0-.1,0-.2.1,0,.1,0,.1.1.1h0l.6.1h0a.265.265,0,0,1,.3.3v5.3a.451.451,0,0,1-.3.3h0l-.6.1h0a.1.1,0,0,0-.1.1c0,.1.1.1.2.1H37c.1,0,.1,0,.2-.1,0-.1,0-.1-.1-.1h0l-.6-.1h0a.265.265,0,0,1-.3-.3V78.8h4.3v2.4h0a.265.265,0,0,1-.3.3h0l-.6.1h0a.1.1,0,0,0-.1.1c0,.1.1.1.2.1h2.8c.1,0,.1,0,.2-.1C42.7,81.6,42.7,81.5,42.6,81.5Z" fill="#fff"/>
      <path id="Path_3235" data-name="Path 3235" d="M52,81.5h0l-.4-.1h0a.446.446,0,0,1-.4-.3h0l-2.7-5.9h-.3l-2.7,5.9h0c-.1.2-.2.3-.4.3h0l-.4.1h0a.1.1,0,0,0-.1.1c0,.1.1.1.2.1h2c.1,0,.1,0,.2-.1,0-.1,0-.1-.1-.1h0l-.5-.1h0a.349.349,0,0,1-.2-.1v-.2h0l.9-1.9h2.5l.8,1.8h0c.1.2-.1.4-.3.4l-.6.1h0a.1.1,0,0,0-.1.1c0,.1.1.1.2.1h2.6c.1,0,.1,0,.2-.1A.584.584,0,0,1,52,81.5Zm-5-2.8,1-2.3,1,2.3Z" fill="#fff"/>
      <g id="Group_529" data-name="Group 529">
        <path id="Path_3236" data-name="Path 3236" d="M23.3,78.4a5.019,5.019,0,0,0-.2-1.2,3.508,3.508,0,0,0-.5-.8,3.24,3.24,0,0,0-.9-.8,4.179,4.179,0,0,0-1-.4,4.869,4.869,0,0,0-1.2-.1h-.4a4.869,4.869,0,0,0-1.2.1,3,3,0,0,0-1,.4,3.24,3.24,0,0,0-.9.8,2.177,2.177,0,0,0-.5.8,5.019,5.019,0,0,0-.2,1.2v.2a5.019,5.019,0,0,0,.2,1.2,3.508,3.508,0,0,0,.5.8,3.24,3.24,0,0,0,.9.8,4.179,4.179,0,0,0,1,.4,4.869,4.869,0,0,0,1.2.1h.4a4.869,4.869,0,0,0,1.2-.1,3,3,0,0,0,1-.4,3.24,3.24,0,0,0,.9-.8,2.177,2.177,0,0,0,.5-.8,5.019,5.019,0,0,0,.2-1.2v-.2Zm-1,.1a5.853,5.853,0,0,1-.2,1.3,2.361,2.361,0,0,1-.6.9,2.075,2.075,0,0,1-1,.6,5.019,5.019,0,0,1-1.2.2h0a5.019,5.019,0,0,1-1.2-.2,2.075,2.075,0,0,1-1-.6,2.361,2.361,0,0,1-.6-.9,2.953,2.953,0,0,1-.2-1.3h0a5.853,5.853,0,0,1,.2-1.3,2.361,2.361,0,0,1,.6-.9,2.075,2.075,0,0,1,1-.6,5.019,5.019,0,0,1,1.2-.2h0a5.019,5.019,0,0,1,1.2.2,2.075,2.075,0,0,1,1,.6,2.361,2.361,0,0,1,.6.9,5.066,5.066,0,0,1,.2,1.3Z" fill="#fff"/>
      </g>
    </g>
  </g>
</svg>
