<svg id="Group_371" data-name="Group 371" xmlns="http://www.w3.org/2000/svg" width="24.992" height="20.585" viewBox="0 0 24.992 20.585">
  <g id="Group_274" data-name="Group 274" transform="translate(0)">
    <g id="Group_269" data-name="Group 269">
      <path id="Path_173" data-name="Path 173" d="M568.568,219.606a10.254,10.254,0,0,1-2.524.721c.406-.068,1.006-.8,1.246-1.1a4.653,4.653,0,0,0,.841-1.53c.022-.044.039-.1-.006-.132a.142.142,0,0,0-.134.011,12.877,12.877,0,0,1-3,1.148.2.2,0,0,1-.207-.055,2.425,2.425,0,0,0-.262-.268,5.308,5.308,0,0,0-1.453-.89,5.061,5.061,0,0,0-2.228-.359,5.325,5.325,0,0,0-2.113.6,5.458,5.458,0,0,0-1.706,1.393,5.252,5.252,0,0,0-1.018,2.039,5.52,5.52,0,0,0-.053,2.153c.016.12.005.137-.1.12a16.014,16.014,0,0,1-10.3-5.245c-.12-.137-.185-.137-.284.011a5.224,5.224,0,0,0,.891,6.174c.2.191.409.383.633.557a5.234,5.234,0,0,1-1.988-.557c-.12-.076-.181-.032-.191.1a3.117,3.117,0,0,0,.032.591,5.284,5.284,0,0,0,3.256,4.212,3.061,3.061,0,0,0,.661.2,5.886,5.886,0,0,1-1.95.06c-.142-.027-.2.044-.142.181a5.485,5.485,0,0,0,4.1,3.431c.186.032.372.032.558.076-.011.017-.022.017-.033.033-.46.7-2.055,1.223-2.8,1.483a10.027,10.027,0,0,1-4.25.544c-.229-.034-.277-.031-.339,0s-.008.093.066.152c.289.192.584.361.885.525a14.044,14.044,0,0,0,2.841,1.137,15.132,15.132,0,0,0,14.69-3.435c3.011-2.992,4.066-7.116,4.066-11.246,0-.162.191-.251.3-.336a9.9,9.9,0,0,0,1.99-2.08.6.6,0,0,0,.123-.4v-.022C568.662,219.54,568.67,219.56,568.568,219.606Z" transform="translate(-543.67 -217.139)" fill="#fff"/>
    </g>
    <g id="Group_270" data-name="Group 270" transform="translate(7.422 20.497)">
      <path id="Path_174" data-name="Path 174" d="M553.118,243.228Z" transform="translate(-553.118 -243.228)" fill="#fff" fill-rule="evenodd"/>
    </g>
    <g id="Group_271" data-name="Group 271" transform="translate(7.232 20.497)">
      <path id="Path_175" data-name="Path 175" d="M553.066,243.228c-.033,0-.412,0,0,0Z" transform="translate(-552.875 -243.228)" fill="#fff" fill-rule="evenodd"/>
    </g>
    <g id="Group_272" data-name="Group 272" transform="translate(8.264 20.5)">
      <path id="Path_176" data-name="Path 176" d="M554.189,243.251c0-.042.442,0,0,0C554.189,243.229,554.243,243.251,554.189,243.251Z" transform="translate(-554.189 -243.232)" fill="#fff" fill-rule="evenodd"/>
    </g>
    <g id="Group_273" data-name="Group 273" transform="translate(16.999 0.03)">
      <path id="Path_177" data-name="Path 177" d="M565.412,217.177a.089.089,0,0,1-.1,0Z" transform="translate(-565.308 -217.177)" fill="#fff" fill-rule="evenodd"/>
    </g>
  </g>
</svg>
