<svg xmlns="http://www.w3.org/2000/svg" width="41.321" height="28.931" viewBox="0 0 41.321 28.931">
  <path id="youtube_1_" data-name="youtube (1)" d="M40.469-1.555A5.177,5.177,0,0,0,36.828-5.2c-3.233-.885-16.168-.885-16.168-.885s-12.934,0-16.167.851A5.282,5.282,0,0,0,.851-1.555C0,1.678,0,8.384,0,8.384s0,6.739.851,9.939a5.177,5.177,0,0,0,3.642,3.642c3.267.885,16.167.885,16.167.885s12.934,0,16.167-.851a5.177,5.177,0,0,0,3.642-3.642c.851-3.233.851-9.939.851-9.939S41.355,1.678,40.469-1.555ZM16.542,14.578V2.189L27.3,8.384Zm0,0" transform="translate(0 6.082)" fill="#fff"/>
</svg>
