<svg id="facebook" xmlns="http://www.w3.org/2000/svg" width="28.725" height="28.725" viewBox="0 0 28.725 28.725">
  <g id="Group_386" data-name="Group 386">
    <path id="Path_3098" data-name="Path 3098" d="M25.134,0H3.591A3.594,3.594,0,0,0,0,3.591V25.134a3.594,3.594,0,0,0,3.591,3.591H14.362V18.851H10.772V14.362h3.591V10.772a5.386,5.386,0,0,1,5.386-5.386h3.591V9.874h-1.8c-.991,0-1.8-.093-1.8.9v3.591h4.488l-1.8,4.488H19.748v9.874h5.386a3.594,3.594,0,0,0,3.591-3.591V3.591A3.594,3.594,0,0,0,25.134,0Z" fill="#fff"/>
  </g>
</svg>
