<svg xmlns="http://www.w3.org/2000/svg" width="27.735" height="26.51" viewBox="0 0 27.735 26.51">
  <path id="logos" d="M19.686,39.137H13.74V21.25h5.946Zm-2.973-20.33h-.039a3.1,3.1,0,1,1,.078-6.181,3.1,3.1,0,1,1-.039,6.181Zm24.411,20.33H35.179V29.568c0-2.4-.861-4.045-3.012-4.045a3.255,3.255,0,0,0-3.05,2.174,4.072,4.072,0,0,0-.2,1.451v9.989H22.976s.078-16.209,0-17.887h5.945v2.533a5.9,5.9,0,0,1,5.358-2.952c3.912,0,6.845,2.557,6.845,8.051Zm0,0" transform="translate(-13.389 -12.627)" fill="#fff"/>
</svg>
