<?xml version="1.0" encoding="UTF-8"?> <svg xmlns="http://www.w3.org/2000/svg" width="141.314" height="166.329" viewBox="0 0 141.314 166.329"><g id="Group_25" data-name="Group 25" transform="translate(-107.9 -105.2)"><path id="Path_13" data-name="Path 13" d="M281.217,195.308a2.43,2.43,0,0,1-2.408,2.408,2.383,2.383,0,0,1-2.408-2.408,2.408,2.408,0,1,1,4.817,0" transform="translate(-134.417 -87.7)" fill="#fff" fill-rule="evenodd"></path><path id="Path_14" data-name="Path 14" d="M264.236,285.238a3.978,3.978,0,1,0-4.014-4.014,4,4,0,0,0,4.014,4.014m0-8.466a3.786,3.786,0,0,0,3.868-3.8,3.869,3.869,0,1,0-3.868,3.8m0-8.393a3.676,3.676,0,0,0,3.722-3.649,3.723,3.723,0,0,0-3.722-3.649,3.676,3.676,0,0,0-3.722,3.649,3.723,3.723,0,0,0,3.722,3.649m0-8.466a3.443,3.443,0,0,0,3.5-3.43,3.489,3.489,0,0,0-3.5-3.43,3.431,3.431,0,1,0,0,6.86m0-8.466a3.285,3.285,0,1,0-3.357-3.284,3.333,3.333,0,0,0,3.357,3.284m0-8.466a3.139,3.139,0,1,0-3.211-3.138,3.178,3.178,0,0,0,3.211,3.138m0-8.466a2.944,2.944,0,0,0,2.992-2.919,2.991,2.991,0,0,0-2.992-2.919,2.92,2.92,0,1,0,0,5.839m0-8.393a2.835,2.835,0,0,0,2.846-2.773,2.789,2.789,0,0,0-2.846-2.773,2.774,2.774,0,1,0,0,5.547m12.115,92.324a4.561,4.561,0,0,0-.438-8.247,4.4,4.4,0,0,0-.511-8.247,4.259,4.259,0,0,0-.657-8.247,4.117,4.117,0,0,0-.8-8.174,4.208,4.208,0,0,0-4.233,4.087,4.152,4.152,0,0,0,3.43,4.087,4.308,4.308,0,0,0-3.576,4.233,4.227,4.227,0,0,0,2.992,4.014,4.4,4.4,0,0,0-.511,8.247,4.625,4.625,0,0,0-2.846,4.233,4.524,4.524,0,0,0,2.408,4.014,4.825,4.825,0,1,0,7.152,4.233,4.28,4.28,0,0,0-2.409-4.233m-2.262-33.207a3.979,3.979,0,1,0,0-7.955,3.978,3.978,0,1,0,0,7.955m0-8.466a3.8,3.8,0,1,0-3.868-3.8,3.786,3.786,0,0,0,3.868,3.8m0-8.393a3.676,3.676,0,0,0,3.722-3.649,3.723,3.723,0,0,0-3.722-3.649,3.676,3.676,0,0,0-3.722,3.649,3.723,3.723,0,0,0,3.722,3.649m0-8.466a3.443,3.443,0,0,0,3.5-3.43,3.489,3.489,0,0,0-3.5-3.43,3.443,3.443,0,0,0-3.5,3.43,3.4,3.4,0,0,0,3.5,3.43m0-8.466a3.285,3.285,0,1,0,0-6.568,3.333,3.333,0,0,0-3.357,3.284,3.287,3.287,0,0,0,3.357,3.284m0-8.466a3.178,3.178,0,0,0,3.211-3.138,3.226,3.226,0,0,0-3.211-3.138,3.115,3.115,0,0,0-3.138,3.138,3.07,3.07,0,0,0,3.138,3.138m0-8.466A2.92,2.92,0,1,0,271.1,231.6a2.9,2.9,0,0,0,2.992,2.919m0-8.393a2.789,2.789,0,0,0,2.846-2.773,2.847,2.847,0,0,0-5.693,0,2.789,2.789,0,0,0,2.846,2.773m0-8.466a2.628,2.628,0,1,0-2.7-2.627,2.633,2.633,0,0,0,2.7,2.627m0-8.466a2.445,2.445,0,1,0-2.481-2.481,2.461,2.461,0,0,0,2.481,2.481M286.2,318.446a4.561,4.561,0,0,0-.438-8.247,4.4,4.4,0,0,0-.511-8.247,4.259,4.259,0,0,0-.657-8.247,4.117,4.117,0,0,0-.8-8.174,4.208,4.208,0,0,0-4.233,4.087,4.152,4.152,0,0,0,3.43,4.087,4.308,4.308,0,0,0-3.576,4.233,4.254,4.254,0,0,0,2.919,4.014,4.4,4.4,0,0,0-.511,8.247,4.625,4.625,0,0,0-2.846,4.233,4.524,4.524,0,0,0,2.408,4.014,4.825,4.825,0,1,0,7.152,4.233,4.223,4.223,0,0,0-2.336-4.233m-2.335-33.207a3.979,3.979,0,1,0,0-7.955,3.978,3.978,0,1,0,0,7.955m0-8.466a3.8,3.8,0,1,0-3.868-3.8,3.832,3.832,0,0,0,3.868,3.8m0-8.393a3.676,3.676,0,0,0,3.722-3.649,3.723,3.723,0,0,0-3.722-3.649,3.614,3.614,0,0,0-3.649,3.649,3.66,3.66,0,0,0,3.649,3.649m0-8.466a3.443,3.443,0,0,0,3.5-3.43,3.489,3.489,0,0,0-3.5-3.43,3.431,3.431,0,1,0,0,6.86m0-8.466a3.285,3.285,0,1,0-3.357-3.284,3.333,3.333,0,0,0,3.357,3.284m0-8.466a3.178,3.178,0,0,0,3.211-3.138,3.226,3.226,0,0,0-3.211-3.138,3.139,3.139,0,1,0,0,6.277m12.115,75.465a4.561,4.561,0,0,0-.438-8.247,4.4,4.4,0,0,0-.511-8.247,4.228,4.228,0,0,0,2.919-4.014,4.308,4.308,0,0,0-3.576-4.233,4.117,4.117,0,0,0-.8-8.174,4.208,4.208,0,0,0-4.233,4.087,4.152,4.152,0,0,0,3.43,4.087,4.308,4.308,0,0,0-3.576,4.233,4.254,4.254,0,0,0,2.919,4.014,4.469,4.469,0,0,0-3.138,4.233,4.379,4.379,0,0,0,2.7,4.014,4.625,4.625,0,0,0-2.846,4.233,4.524,4.524,0,0,0,2.408,4.014,4.825,4.825,0,1,0,7.152,4.233,4.279,4.279,0,0,0-2.409-4.233m-2.335-33.207a3.979,3.979,0,1,0,0-7.955,3.941,3.941,0,0,0-4.014,3.941,4,4,0,0,0,4.014,4.014m0-8.466a3.8,3.8,0,1,0-3.868-3.8,3.832,3.832,0,0,0,3.868,3.8m0-8.393a3.676,3.676,0,0,0,3.722-3.649,3.723,3.723,0,0,0-3.722-3.649A3.614,3.614,0,0,0,290,264.73a3.66,3.66,0,0,0,3.649,3.649m0-8.466a3.433,3.433,0,1,0,0-6.86,3.443,3.443,0,0,0-3.5,3.43,3.489,3.489,0,0,0,3.5,3.43m0-8.466a3.285,3.285,0,1,0,0-6.568,3.287,3.287,0,0,0-3.357,3.284,3.381,3.381,0,0,0,3.357,3.284m0-8.466a3.178,3.178,0,0,0,3.211-3.138,3.226,3.226,0,0,0-3.211-3.138,3.177,3.177,0,0,0-3.211,3.138,3.275,3.275,0,0,0,3.211,3.138m0-8.466a2.92,2.92,0,1,0-2.992-2.919,2.991,2.991,0,0,0,2.992,2.919m0-8.393a2.774,2.774,0,1,0,0-5.547,2.835,2.835,0,0,0-2.846,2.773,2.884,2.884,0,0,0,2.846,2.773m0-8.466a2.679,2.679,0,0,0,2.7-2.627,2.7,2.7,0,0,0-5.4,0,2.728,2.728,0,0,0,2.7,2.627m12.188,100.79a4.561,4.561,0,0,0-.438-8.247,4.388,4.388,0,0,0,2.627-4.014,4.469,4.469,0,0,0-3.138-4.233,4.228,4.228,0,0,0,2.919-4.014,4.308,4.308,0,0,0-3.576-4.233,4.117,4.117,0,0,0-.8-8.174,4.208,4.208,0,0,0-4.233,4.087,4.152,4.152,0,0,0,3.43,4.087,4.373,4.373,0,0,0-3.649,4.233,4.227,4.227,0,0,0,2.992,4.014,4.4,4.4,0,0,0-.511,8.247,4.561,4.561,0,0,0-.438,8.247,4.825,4.825,0,1,0,7.152,4.233,4.223,4.223,0,0,0-2.336-4.233M303.5,285.238a3.978,3.978,0,1,0,0-7.955,3.979,3.979,0,1,0,0,7.955m0-8.466a3.8,3.8,0,1,0-3.868-3.8,3.832,3.832,0,0,0,3.868,3.8m0-8.393a3.676,3.676,0,0,0,3.722-3.649,3.723,3.723,0,0,0-3.722-3.649,3.676,3.676,0,0,0-3.722,3.649,3.723,3.723,0,0,0,3.722,3.649m0-8.466a3.443,3.443,0,0,0,3.5-3.43,3.489,3.489,0,0,0-3.5-3.43,3.431,3.431,0,1,0,0,6.86m0-8.466a3.285,3.285,0,1,0,0-6.568,3.287,3.287,0,0,0-3.357,3.284,3.333,3.333,0,0,0,3.357,3.284m0-8.466a3.139,3.139,0,1,0,0-6.277,3.138,3.138,0,0,0,0,6.277m0-8.466a2.92,2.92,0,1,0-2.992-2.919,2.944,2.944,0,0,0,2.992,2.919m0-8.393a2.774,2.774,0,1,0-2.846-2.773,2.789,2.789,0,0,0,2.846,2.773m0-8.466a2.627,2.627,0,1,0,0-5.255,2.628,2.628,0,1,0,0,5.255m12.115,100.79a4.68,4.68,0,0,0,2.481-4.014,4.625,4.625,0,0,0-2.846-4.233,4.4,4.4,0,0,0-.511-8.247,4.259,4.259,0,0,0-.657-8.247,4.117,4.117,0,0,0-.8-8.174,4.208,4.208,0,0,0-4.233,4.087,4.152,4.152,0,0,0,3.43,4.087,4.308,4.308,0,0,0-3.576,4.233,4.227,4.227,0,0,0,2.992,4.014,4.469,4.469,0,0,0-3.138,4.233,4.379,4.379,0,0,0,2.7,4.014,4.561,4.561,0,0,0-.438,8.247,4.825,4.825,0,1,0,7.152,4.233,4.639,4.639,0,0,0-2.555-4.233m-2.335-33.207a3.979,3.979,0,1,0,0-7.955,3.941,3.941,0,0,0-4.014,3.941,4,4,0,0,0,4.014,4.014m0-8.466a3.8,3.8,0,1,0-3.868-3.8,3.832,3.832,0,0,0,3.868,3.8m0-8.393A3.676,3.676,0,0,0,317,264.73a3.723,3.723,0,0,0-3.722-3.649,3.676,3.676,0,0,0-3.722,3.649,3.824,3.824,0,0,0,3.722,3.649m9.853,16.859a3.978,3.978,0,1,0-4.014-4.014,3.957,3.957,0,0,0,4.014,4.014m0-8.466a3.8,3.8,0,1,0-3.868-3.8,3.832,3.832,0,0,0,3.868,3.8m0-8.393a3.676,3.676,0,0,0,3.722-3.649,3.723,3.723,0,0,0-3.722-3.649,3.676,3.676,0,0,0-3.722,3.649,3.723,3.723,0,0,0,3.722,3.649m0-8.466a3.443,3.443,0,0,0,3.5-3.43,3.489,3.489,0,0,0-3.5-3.43,3.554,3.554,0,0,0-3.576,3.43,3.506,3.506,0,0,0,3.576,3.43m9.853,25.325a3.979,3.979,0,1,0-4.087-4.014,4,4,0,0,0,4.087,4.014m0-8.466a3.8,3.8,0,1,0-3.868-3.8,3.742,3.742,0,0,0,3.868,3.8m0-8.393a3.65,3.65,0,1,0-3.722-3.649,3.676,3.676,0,0,0,3.722,3.649m0-8.466a3.443,3.443,0,0,0,3.5-3.43,3.541,3.541,0,1,0-3.5,3.43m0-8.466a3.285,3.285,0,1,0,0-6.568,3.287,3.287,0,0,0-3.357,3.284,3.243,3.243,0,0,0,3.357,3.284m0-8.466a3.178,3.178,0,0,0,3.211-3.138,3.226,3.226,0,0,0-3.211-3.138,3.115,3.115,0,0,0-3.138,3.138,3.028,3.028,0,0,0,3.138,3.138m0-8.466a2.92,2.92,0,1,0-2.992-2.919,2.9,2.9,0,0,0,2.992,2.919M345.1,318.446a4.561,4.561,0,0,0-.438-8.247,4.42,4.42,0,0,0-.438-8.247,4.259,4.259,0,0,0-.657-8.247,4.117,4.117,0,0,0-.8-8.174,4.208,4.208,0,0,0-4.233,4.087,4.152,4.152,0,0,0,3.43,4.087,4.308,4.308,0,0,0-3.576,4.233,4.254,4.254,0,0,0,2.919,4.014,4.4,4.4,0,0,0-.511,8.247,4.625,4.625,0,0,0-2.846,4.233,4.524,4.524,0,0,0,2.408,4.014,4.984,4.984,0,0,0-2.627,4.233,4.7,4.7,0,0,0-2.627-4.233,4.561,4.561,0,0,0-.438-8.247,4.388,4.388,0,0,0,2.627-4.014,4.469,4.469,0,0,0-3.138-4.233,4.259,4.259,0,0,0-.657-8.247,4.117,4.117,0,0,0-.8-8.174,4.208,4.208,0,0,0-4.233,4.087,4.152,4.152,0,0,0,3.43,4.087,4.308,4.308,0,0,0-3.576,4.233,4.254,4.254,0,0,0,2.919,4.014,4.4,4.4,0,0,0-.511,8.247,4.561,4.561,0,0,0-.438,8.247,4.839,4.839,0,0,0-2.627,4.233,4.7,4.7,0,0,0-2.627-4.233,4.561,4.561,0,0,0-.438-8.247,4.381,4.381,0,0,0-.438-8.247,4.228,4.228,0,0,0,2.919-4.014A4.308,4.308,0,0,0,323.5,293.7a4.117,4.117,0,0,0-.8-8.174,4.208,4.208,0,0,0-4.233,4.087,4.152,4.152,0,0,0,3.43,4.087,4.373,4.373,0,0,0-3.649,4.233,4.185,4.185,0,0,0,2.919,4.014,4.42,4.42,0,0,0-.438,8.247,4.585,4.585,0,0,0-.365,8.247,4.772,4.772,0,0,0-2.554,4.233,4.89,4.89,0,0,0,9.78,0,4.89,4.89,0,0,0,9.78,0,4.928,4.928,0,0,0,9.853,0,3.78,3.78,0,0,0-2.117-4.233m-2.335-33.207a3.978,3.978,0,1,0,0-7.955,3.979,3.979,0,1,0,0,7.955m0-8.466a3.8,3.8,0,1,0,0-7.59,3.8,3.8,0,1,0,0,7.59m0-8.393a3.614,3.614,0,0,0,3.649-3.649,3.686,3.686,0,0,0-7.371,0,3.723,3.723,0,0,0,3.722,3.649m0-8.466a3.443,3.443,0,0,0,3.5-3.43,3.489,3.489,0,0,0-3.5-3.43,3.431,3.431,0,1,0,0,6.86m0-8.466a3.333,3.333,0,0,0,3.357-3.284,3.358,3.358,0,1,0-3.357,3.284m0-8.466a3.178,3.178,0,0,0,3.211-3.138,3.226,3.226,0,0,0-3.211-3.138,3.139,3.139,0,1,0,0,6.277m0-8.466a2.92,2.92,0,1,0-2.992-2.919,2.944,2.944,0,0,0,2.992,2.919m0-8.393a2.774,2.774,0,1,0,0-5.547,2.774,2.774,0,1,0,0,5.547m0-8.466a2.627,2.627,0,1,0,0-5.255,2.628,2.628,0,1,0,0,5.255m0-8.466a2.445,2.445,0,1,0-2.481-2.481,2.461,2.461,0,0,0,2.481,2.481m12.115,109.256a4.561,4.561,0,0,0-.438-8.247,4.4,4.4,0,0,0-.511-8.247,4.228,4.228,0,0,0,2.919-4.014A4.305,4.305,0,0,0,353.2,293.7a4.117,4.117,0,0,0-.8-8.174,4.208,4.208,0,0,0-4.233,4.087,4.152,4.152,0,0,0,3.43,4.087,4.308,4.308,0,0,0-3.576,4.233,4.254,4.254,0,0,0,2.919,4.014,4.4,4.4,0,0,0-.511,8.247,4.625,4.625,0,0,0-2.846,4.233,4.456,4.456,0,0,0,2.481,4.014,4.7,4.7,0,0,0-2.627,4.233,4.89,4.89,0,0,0,9.78,0,4.118,4.118,0,0,0-2.336-4.233m-2.335-33.207a3.979,3.979,0,1,0,0-7.955,3.941,3.941,0,0,0-4.014,3.941,4,4,0,0,0,4.014,4.014m0-8.466a3.8,3.8,0,1,0-3.868-3.8,3.832,3.832,0,0,0,3.868,3.8m0-8.393a3.65,3.65,0,1,0,0-7.3,3.614,3.614,0,0,0-3.649,3.649,3.66,3.66,0,0,0,3.649,3.649m0-8.466a3.443,3.443,0,0,0,3.5-3.43,3.489,3.489,0,0,0-3.5-3.43,3.443,3.443,0,0,0-3.5,3.43,3.489,3.489,0,0,0,3.5,3.43m0-8.466a3.285,3.285,0,1,0-3.357-3.284,3.381,3.381,0,0,0,3.357,3.284m0-8.466a3.139,3.139,0,1,0-3.211-3.138,3.225,3.225,0,0,0,3.211,3.138m0-8.466a2.92,2.92,0,1,0-2.992-2.919,2.991,2.991,0,0,0,2.992,2.919m0-8.393a2.774,2.774,0,1,0-2.846-2.773,2.835,2.835,0,0,0,2.846,2.773m0-8.466a2.627,2.627,0,1,0,0-5.255,2.679,2.679,0,0,0-2.7,2.627,2.728,2.728,0,0,0,2.7,2.627m0-8.466a2.445,2.445,0,1,0-2.481-2.481,2.461,2.461,0,0,0,2.481,2.481M266.571,318.446a4.561,4.561,0,0,0-.438-8.247,4.388,4.388,0,0,0,2.627-4.014,4.469,4.469,0,0,0-3.138-4.233,4.259,4.259,0,0,0-.657-8.247,4.117,4.117,0,0,0-.8-8.174,4.208,4.208,0,0,0-4.233,4.087,4.152,4.152,0,0,0,3.43,4.087,4.308,4.308,0,0,0-3.576,4.233,4.254,4.254,0,0,0,2.919,4.014,4.42,4.42,0,0,0-.438,8.247,4.625,4.625,0,0,0-2.846,4.233,4.524,4.524,0,0,0,2.408,4.014,4.825,4.825,0,1,0,7.152,4.233,4.393,4.393,0,0,0-2.409-4.233" transform="translate(-129.77 -90.78)" fill="#fff" fill-rule="evenodd"></path><path id="Path_15" data-name="Path 15" d="M244.881,404.018a6.329,6.329,0,0,0-1.971-1.971,29.662,29.662,0,0,0-4.379-2.19,23.228,23.228,0,0,1-4.89-2.481,2.422,2.422,0,0,1-.876-1.825,2.781,2.781,0,0,1,1.314-2.262,5.609,5.609,0,0,1,3.43-.949,6.51,6.51,0,0,1,3.43.949,5.358,5.358,0,0,1,2.189,2.773c0,.146.146.219.292.219s.292-.073.292-.219h0l.292-3.5a12.268,12.268,0,0,0-2.481-1.095,15.44,15.44,0,0,0-3.43-.365,9.719,9.719,0,0,0-5.693,1.533,4.579,4.579,0,0,0-2.117,3.8,4.459,4.459,0,0,0,.584,2.189,8.063,8.063,0,0,0,2.408,2.262,33.417,33.417,0,0,0,4.233,2.044,15.381,15.381,0,0,1,4.306,2.481,2.962,2.962,0,0,1,1.022,2.262,2.789,2.789,0,0,1-.73,1.825,4.289,4.289,0,0,1-1.9,1.46,7.016,7.016,0,0,1-7.006-1.022,5.361,5.361,0,0,1-2.262-3.138v-.219c0-.219-.146-.365-.438-.365a.409.409,0,0,0-.438.365c0,.146-.365,4.16-.365,4.16a.551.551,0,0,0,.292.511,5.747,5.747,0,0,0,1.752.657,18.512,18.512,0,0,0,4.963.657,14.545,14.545,0,0,0,4.817-.73,6.476,6.476,0,0,0,2.919-2.263,5.254,5.254,0,0,0,1.022-3.211,3.858,3.858,0,0,0-.584-2.336" transform="translate(-121.8 -141.247)" fill="#fff"></path><path id="Path_16" data-name="Path 16" d="M320.864,400.45c2.481-.8,4.233-2.408,4.233-4.233,0-2.7-3.722-4.817-8.247-4.817h-4.233c-1.9.073-3.138.146-4.671.292l-1.314.073h0c-.219,0-.438.146-.438.292a.463.463,0,0,0,.365.438l2.262.438c.657.146.657.511.584,1.095v16.421h0a1.173,1.173,0,0,1-1.095,1.095h0l-1.752.438c-.219,0-.438.219-.365.365a.322.322,0,0,0,.438.292h11.312c5.182,0,9.415-2.773,9.415-6.277,0-2.773-2.773-5.109-6.5-5.912m-4.89-8.028a8.337,8.337,0,0,1,3.5.657c.146.073,3.868,1.752,1.46,5.328-.073.073-1.387,2.19-5.912,2.19-.73,0-1.606-.073-2.408-.146v-7.663a14.2,14.2,0,0,1,3.357-.365m6.86,17.005s-1.46,1.971-5.547,2.044H317c-.949,0-4.087-.146-4.306-2.263v-7.371a24.677,24.677,0,0,1,3.357-.219,12.357,12.357,0,0,1,5.4.949,5.966,5.966,0,0,1,1.9,1.825c1.022,1.606.876,3.284-.511,5.036" transform="translate(-142.462 -141.328)" fill="#fff"></path><path id="Path_17" data-name="Path 17" d="M371.915,411.808h0l-1.752-.438a1.121,1.121,0,0,1-1.095-1.095h0v-16.64a1.173,1.173,0,0,1,1.095-1.095l1.752-.438a.365.365,0,0,0,.365-.438c0-.219-.219-.365-.511-.365h-8.831c-.219,0-.511.146-.511.365a.345.345,0,0,0,.365.365h0l1.752.438a1.121,1.121,0,0,1,1.095,1.095h0V401.3H351.99V393.49c0-.511.438-.876,1.095-.949l1.752-.438a.365.365,0,0,0,.365-.438c0-.219-.219-.365-.511-.365h-8.685a.549.549,0,0,0-.511.365.345.345,0,0,0,.365.365h0l1.752.438a1.274,1.274,0,0,1,1.095.876v17.078a1.191,1.191,0,0,1-1.095.876l-1.752.438h0c-.219,0-.438.219-.365.365a.486.486,0,0,0,.511.365h8.758a.549.549,0,0,0,.511-.365.345.345,0,0,0-.365-.365l-1.752-.438a1.174,1.174,0,0,1-1.095-.949v-7.809h13.648v7.736h0a1.173,1.173,0,0,1-1.095,1.095l-1.752.438c-.219,0-.438.219-.365.365,0,.219.219.365.511.365h8.831c.219,0,.511-.146.511-.365a.473.473,0,0,0-.438-.365" transform="translate(-153.08 -141.301)" fill="#fff"></path><path id="Path_18" data-name="Path 18" d="M413.879,411.835h0l-1.314-.365h0a1.885,1.885,0,0,1-1.387-1.022h0L402.421,391.4h-.8l-8.758,19.049h0a1.885,1.885,0,0,1-1.387,1.022h0l-1.314.365a.365.365,0,0,0-.365.438c0,.219.219.365.511.292h6.5a.614.614,0,0,0,.511-.292.463.463,0,0,0-.365-.438l-1.606-.365a1.241,1.241,0,0,1-.73-.438.66.66,0,0,1,0-.73h0l2.846-6.2h7.882l2.7,5.912h0a.959.959,0,0,1-.8,1.387l-1.825.438a.365.365,0,0,0-.365.438c0,.219.292.365.511.292h8.174a.614.614,0,0,0,.511-.292.335.335,0,0,0-.365-.438m-15.764-8.977,3.357-7.371,3.357,7.371Z" transform="translate(-165.048 -141.328)" fill="#fff"></path><path id="Path_19" data-name="Path 19" d="M287.209,401.683a9.656,9.656,0,0,0-.73-3.722,8.781,8.781,0,0,0-1.606-2.554,12.993,12.993,0,0,0-2.992-2.554,15.317,15.317,0,0,0-3.357-1.314,16.36,16.36,0,0,0-3.8-.438h-1.022a16.829,16.829,0,0,0-3.8.438,12.382,12.382,0,0,0-3.357,1.314,10.355,10.355,0,0,0-2.992,2.554,7.918,7.918,0,0,0-1.606,2.554,10.512,10.512,0,0,0-.657,3.722v.511a11.12,11.12,0,0,0,.657,3.722,7.918,7.918,0,0,0,1.606,2.554,11.643,11.643,0,0,0,2.992,2.554,15.315,15.315,0,0,0,3.357,1.314,16.36,16.36,0,0,0,3.8.438h1.022a16.36,16.36,0,0,0,3.8-.438,12.381,12.381,0,0,0,3.357-1.314,9.49,9.49,0,0,0,2.992-2.554,7.919,7.919,0,0,0,1.606-2.554,10.56,10.56,0,0,0,.73-3.722v-.511Zm-3.357.292a12.02,12.02,0,0,1-.73,4.233,6.755,6.755,0,0,1-1.9,2.846,9.61,9.61,0,0,1-3.065,1.971,11.377,11.377,0,0,1-3.868.73h0a9.86,9.86,0,0,1-3.868-.73,8.207,8.207,0,0,1-3.138-1.971,7.574,7.574,0,0,1-1.825-2.846,12.308,12.308,0,0,1-.73-4.233V401.9h0a12.714,12.714,0,0,1,.73-4.306,7.339,7.339,0,0,1,1.825-2.846,9.187,9.187,0,0,1,3.138-1.971,11.332,11.332,0,0,1,3.868-.657h0a11.332,11.332,0,0,1,3.868.657,7.423,7.423,0,0,1,3.065,1.971,8.838,8.838,0,0,1,1.9,2.846,12.422,12.422,0,0,1,.73,4.306v.073Z" transform="translate(-130.337 -141.247)" fill="#fff"></path></g></svg> 